<?xml version="1.0" standalone="no"?>
<!DOCTYPE svg PUBLIC "-//W3C//DTD SVG 20010904//EN"
 "http://www.w3.org/TR/2001/REC-SVG-20010904/DTD/svg10.dtd">
<svg version="1.0" xmlns="http://www.w3.org/2000/svg"
 width="200.000000pt" height="200.000000pt" viewBox="0 0 200.000000 200.000000"
 preserveAspectRatio="xMidYMid meet">

<g transform="translate(0.000000,200.000000) scale(0.100000,-0.100000)"
fill="#000000" stroke="none">
<path d="M550 1736 l0 -106 55 0 56 0 -3 103 -3 102 -52 3 -53 3 0 -105z"/>
<path d="M212 1677 c-18 -18 -32 -37 -32 -43 0 -5 31 -40 68 -77 l68 -67 39
40 39 40 -69 70 c-38 39 -72 70 -75 70 -3 0 -20 -15 -38 -33z"/>
<path d="M875 1640 l-69 -70 39 -40 39 -40 73 72 73 72 -37 38 c-20 21 -40 38
-43 38 -3 0 -37 -31 -75 -70z"/>
<path d="M520 1525 c-144 -45 -213 -217 -142 -356 29 -57 95 -116 141 -125 26
-5 26 -6 26 -102 0 -86 3 -104 28 -153 33 -69 99 -132 175 -167 l57 -27 440 0
440 0 56 26 c79 37 133 90 171 167 29 59 33 76 33 152 0 73 -4 93 -28 142 -47
96 -139 172 -235 193 -21 4 -37 16 -47 35 -24 46 -104 119 -165 150 -81 41
-174 57 -251 42 -118 -22 -215 -83 -281 -180 -24 -35 -35 -43 -56 -40 -23 3
-28 9 -34 47 -16 92 -91 174 -183 200 -51 14 -89 13 -145 -4z m150 -113 c22
-12 44 -35 58 -62 33 -65 29 -85 -20 -116 -24 -15 -57 -43 -75 -62 -28 -31
-36 -34 -66 -28 -23 4 -48 20 -72 48 -36 39 -37 43 -33 99 5 62 20 87 73 120
38 24 91 24 135 1z m745 -45 c57 -29 129 -97 103 -97 -13 0 -124 -53 -137 -65
-2 -2 9 -24 25 -49 l28 -44 54 29 c162 86 353 -22 355 -201 1 -106 -65 -195
-167 -225 -71 -21 -790 -22 -860 -1 -66 20 -110 57 -140 118 -94 188 75 393
275 335 69 -21 130 -77 155 -145 10 -26 20 -50 23 -54 6 -7 84 12 96 23 9 10
-33 113 -65 157 -16 22 -50 55 -77 73 -26 18 -49 33 -51 35 -9 6 22 45 59 75
93 73 223 88 324 36z"/>
<path d="M50 1285 l0 -55 106 0 105 0 -3 53 -3 52 -102 3 -103 3 0 -56z"/>
<path d="M247 1012 c-37 -37 -67 -72 -67 -78 0 -5 16 -25 35 -44 l35 -34 73
72 72 72 -40 40 -40 40 -68 -68z"/>
<path d="M896 343 c-20 -82 -39 -156 -42 -165 -5 -16 2 -18 50 -18 l55 0 15
53 c22 78 66 254 66 266 0 7 -22 11 -54 11 l-54 0 -36 -147z"/>
<path d="M1146 338 c-21 -84 -37 -157 -37 -163 1 -5 24 -10 53 -10 l51 0 43
163 42 162 -57 0 -56 0 -39 -152z"/>
<path d="M1435 478 c-14 -41 -75 -287 -75 -302 0 -14 8 -17 53 -14 l52 3 41
163 42 162 -54 0 c-35 0 -56 -5 -59 -12z"/>
</g>
</svg>
