<?xml version="1.0" standalone="no"?>
<!DOCTYPE svg PUBLIC "-//W3C//DTD SVG 20010904//EN"
 "http://www.w3.org/TR/2001/REC-SVG-20010904/DTD/svg10.dtd">
<svg version="1.0" xmlns="http://www.w3.org/2000/svg"
 width="512.000000pt" height="512.000000pt" viewBox="0 0 512.000000 512.000000"
 preserveAspectRatio="xMidYMid meet">

<g transform="translate(0.000000,512.000000) scale(0.100000,-0.100000)"
fill="#000000" stroke="none">
<path d="M1837 5105 c-50 -17 -85 -50 -108 -100 -16 -35 -19 -68 -19 -282 l0
-243 -245 0 c-272 0 -353 -10 -460 -59 -131 -60 -246 -175 -306 -306 -49 -107
-59 -188 -59 -460 l0 -245 -242 0 c-214 0 -248 -3 -283 -19 -154 -69 -154
-313 0 -382 35 -16 69 -19 283 -19 l242 0 0 -320 0 -320 -223 0 c-254 0 -302
-8 -354 -62 -83 -86 -84 -227 -3 -308 54 -54 88 -60 349 -60 l231 0 0 -350 c0
-385 7 -450 59 -565 60 -131 175 -246 306 -306 107 -49 188 -59 460 -59 l245
0 0 -242 c0 -214 3 -248 19 -283 69 -154 313 -154 382 0 16 35 19 69 19 283
l0 242 430 0 430 0 0 -242 c0 -214 3 -248 19 -283 69 -154 313 -154 382 0 16
35 19 69 19 282 l0 241 278 4 c269 4 279 5 358 31 192 64 336 208 401 401 l27
81 4 383 3 382 238 0 237 0 55 27 c45 23 59 37 81 82 45 88 34 182 -29 252
-55 61 -97 69 -360 69 l-223 0 0 320 0 320 243 0 c213 0 247 3 282 19 154 69
154 313 0 382 -35 16 -69 19 -282 19 l-243 0 0 245 c0 272 -10 353 -59 460
-60 131 -175 246 -306 306 -107 49 -188 59 -460 59 l-245 0 0 243 c0 270 -6
296 -69 350 -103 86 -278 51 -332 -68 -16 -35 -19 -69 -19 -282 l0 -243 -430
0 -430 0 0 243 c0 213 -3 247 -19 282 -43 97 -163 140 -274 100z m2101 -1074
c43 -22 73 -53 96 -98 14 -29 16 -157 16 -1368 0 -1183 -2 -1340 -15 -1373
-21 -49 -52 -81 -100 -103 -38 -18 -99 -19 -1378 -19 -1213 0 -1341 2 -1370
16 -45 23 -76 53 -98 96 -18 36 -19 80 -19 1378 0 1298 1 1342 19 1378 22 42
52 72 96 95 27 15 168 16 1373 17 1301 0 1344 -1 1380 -19z"/>
<path d="M1825 3393 c-44 -23 -74 -53 -96 -95 -18 -36 -19 -69 -19 -738 0
-669 1 -702 19 -738 22 -43 53 -73 98 -96 29 -14 107 -16 733 -16 669 0 702 1
738 19 43 22 73 53 96 98 14 29 16 107 16 733 0 626 -2 704 -16 733 -23 45
-53 76 -96 98 -36 18 -68 19 -740 19 -621 -1 -706 -3 -733 -17z m1160 -833 l0
-425 -425 0 -425 0 -3 415 c-1 228 0 421 3 428 3 10 94 12 427 10 l423 -3 0
-425z"/>
</g>
</svg>
