<svg xmlns="http://www.w3.org/2000/svg" viewBox="0 0 98.28 103.12"><defs><style>.cls-1{isolation:isolate;}.cls-2{fill:#539832;}.cls-22,.cls-24,.cls-3{fill:#569132;}.cls-17,.cls-21,.cls-3,.cls-4{opacity:0.4;}.cls-10,.cls-11,.cls-13,.cls-14,.cls-3,.cls-4,.cls-6,.cls-8{mix-blend-mode:multiply;}.cls-4{fill:#457728;}.cls-5{fill:#509d32;}.cls-6{fill:#178137;}.cls-10,.cls-11,.cls-22,.cls-25,.cls-27,.cls-6,.cls-8{opacity:0.3;}.cls-7{fill:#654209;}.cls-9{fill:#b8cd0e;}.cls-10{fill:#00973c;}.cls-11{fill:#549f31;}.cls-12,.cls-13,.cls-14,.cls-21,.cls-27{fill:#afc90c;}.cls-13{opacity:0.6;}.cls-15,.cls-16{fill:#d2d600;}.cls-15,.cls-18,.cls-22,.cls-23,.cls-25{mix-blend-mode:screen;}.cls-18,.cls-19{fill:#96c01f;}.cls-20{fill:#ddda00;}.cls-23{fill:#82ba28;opacity:0.5;}.cls-26{fill:#845819;}</style></defs><g class="cls-1"><g id="Слой_2" data-name="Слой 2"><g id="Layer_1" data-name="Layer 1"><path class="cls-2" d="M76.49,41.37a1.72,1.72,0,0,0-2.4-1,1.7,1.7,0,0,0-1.27,2.29c-1.47-.32-2.45.53-2.08,1.33-1.28-1.24-6.84-1-5.75,5.37-.45-.22-.74.45-.74.45-1.42-1.23-5.44,0-3.6,2.54,0,0-3.43.87-1.5,2.84a2.51,2.51,0,0,0-.61,3.12,2,2,0,0,0,2.67.87S59.43,63.42,64.26,63c.09,1.47,2.67,1.51,2.67,1.51s-.07,3.41,2.39,3.58c.65,2.13,5.23,3.42,6.63,1,.58.79,1.69-.27,1.69-.27,0,1.09,2,1.63,3.82.19,1.3,2.85,9.39,3.39,7.59-2.88,1.68.37,2.51-.66,2.07-1.4,1.18.93,2.82-.49,1.07-2.13,3.93,1.33,6.67-2.75,6-4.5S94.37,56,94.37,56s3.59-2.68-.44-4.78c1.46-1.86.76-6.49-5.81-4.91a1.41,1.41,0,0,0-.8-.76c1.64-.79-.75-4.37-4.51-2C82.18,39.54,78,38.87,76.49,41.37Z"/><path class="cls-3" d="M98.18,58.17c-.7-1.74-3.81-2.18-3.81-2.18s3.59-2.68-.44-4.78c1.46-1.86.76-6.49-5.81-4.91a1.41,1.41,0,0,0-.8-.76c1.64-.79-.75-4.37-4.51-2-.63-4-4.86-4.67-6.32-2.17a1.72,1.72,0,0,0-2.4-1,1.7,1.7,0,0,0-1.27,2.29c-1.47-.32-2.45.53-2.08,1.33-1.28-1.24-6.84-1-5.75,5.37-.45-.22-.74.45-.74.45-1.42-1.23-5.44,0-3.6,2.54,0,0-3.43.87-1.5,2.84a2.51,2.51,0,0,0-.61,3.12,2,2,0,0,0,2.67.87S59.43,63.42,64.26,63c.09,1.47,2.67,1.51,2.67,1.51s-.07,3.41,2.39,3.58c.65,2.13,5.23,3.42,6.63,1,.58.79,1.69-.27,1.69-.27,0,1.09,2,1.63,3.82.19,1.3,2.85,9.39,3.39,7.59-2.88,1.68.37,2.51-.66,2.07-1.4,1.18.93,2.82-.49,1.07-2.13C96.12,64,98.86,59.92,98.18,58.17Zm-8.89,1.26c.53.47.3,1.35-.35,2a2.07,2.07,0,0,1-3.31-.18.79.79,0,0,1-.34-.09,2,2,0,0,1-.75,2,1.12,1.12,0,0,1-1.22,0,2.65,2.65,0,0,1-3.67,2c-1.09-.56-1.54-2.09-.7-2.79-.9-.21-1-1.06-.77-1.9-.72-.27-.77-1.21-.34-2-2,.7-5.25.46-4.94-1.45-.76.56-2,1.06-2.53.66a2.51,2.51,0,0,1-1.63,1.86c-.93.22-1.41-.27-1.41-.87-1,.95-2.81,1.92-3.86,1.15-1.59-1.17-.1-2.72,1.47-3.08-1.52-1.18,4-4.3,3.94-1.75.78-.68,2.16-.77,2.3.11a1.71,1.71,0,0,1,2.41,0,3.45,3.45,0,0,1,2.62-1.74,1.43,1.43,0,0,1,.51.05,2,2,0,0,1,.5-.88,1.92,1.92,0,0,1,2.65-.08A1.43,1.43,0,0,1,81,50.73,2.57,2.57,0,0,1,81.21,48a2.63,2.63,0,0,1,3-.52c1.8.94,1.14,3.19.41,4.75a2.16,2.16,0,0,1,1.81-.51,1.38,1.38,0,0,1,.8.61,3.68,3.68,0,0,1,2.06-.29c2,.4,1.54,2,.59,3.18,1.35-.51,3.19-.75,3.28.77C93.3,57.83,91.22,59.14,89.29,59.43Z"/><path class="cls-4" d="M98.18,58.17c-.6-1.52-3.05-2.05-3.68-2.16a.46.46,0,0,1-.1.05c.65.32,1.3.71,1.43,1.36a2.8,2.8,0,0,1-.45,2.32,3.91,3.91,0,0,1-4.66,1.36,2,2,0,0,1,.18,1.65.91.91,0,0,1-1,.64,1.36,1.36,0,0,1-.73,1.53,1.52,1.52,0,0,1-1.23.16,2.52,2.52,0,0,1-1.07,2.47,2.13,2.13,0,0,1-2.48-.42,1.89,1.89,0,0,1-.32-.46,3,3,0,0,1-.83.4c-.9.27-2-.16-2-.8-1.27.84-3.25,1.42-4.13,0a2.5,2.5,0,0,1-.2-2.08,1.73,1.73,0,0,1-1-.36c-.73,1.12-2.11,2.13-3.43,1.7A1.84,1.84,0,0,1,71,64.07h0a1.75,1.75,0,0,1-1.8-1,1.35,1.35,0,0,1,0-1,2.57,2.57,0,0,1-3.2.21,2.24,2.24,0,0,1-.62-.65,2.89,2.89,0,0,1-1.17.42c-1.2.17-1.32-.79-.89-1.46-1.35-.1-2-.85-1.75-1.91a5.56,5.56,0,0,1-1.32.63,2.29,2.29,0,0,0,1-.21S59.43,63.42,64.26,63c.09,1.47,2.67,1.51,2.67,1.51s-.07,3.41,2.39,3.58c.65,2.13,5.23,3.42,6.63,1,.58.79,1.69-.27,1.69-.27,0,1.09,2,1.63,3.82.19,1.3,2.85,9.39,3.39,7.59-2.88,1.68.37,2.51-.66,2.07-1.4,1.18.93,2.82-.49,1.07-2.13C96.12,64,98.86,59.92,98.18,58.17Z"/><path class="cls-4" d="M59.25,57.26a1.65,1.65,0,0,1,1.55-.32,2.26,2.26,0,0,1,2.08-.71c-.92-2.3,4.88-4.91,6.74-2.32.1,0,.21-.06.31-.07a2.4,2.4,0,0,1,2,.43,5.21,5.21,0,0,1,3.15-.83,4.61,4.61,0,0,1,1.36-2,3,3,0,0,1,2.62-.71,3.31,3.31,0,0,1,1.1-4,3.58,3.58,0,0,1,1.68-.79c.72-1.15,2.42-2,3.66-1.18,1,.68,1,1.92.46,3a3.66,3.66,0,0,1,1.49-.16,1.57,1.57,0,0,1,1.57,1.83,4.76,4.76,0,0,1,3.84-1.89,3.31,3.31,0,0,1,1.35.33c-.67-1.41-2.5-2.43-6.14-1.56a1.41,1.41,0,0,0-.8-.76c1.64-.79-.75-4.37-4.51-2-.63-4-4.86-4.67-6.32-2.17a1.72,1.72,0,0,0-2.4-1,1.7,1.7,0,0,0-1.27,2.29c-1.47-.32-2.45.53-2.08,1.33-1.28-1.24-6.84-1-5.75,5.37-.45-.22-.74.45-.74.45-1.42-1.23-5.44,0-3.6,2.54,0,0-3.43.87-1.5,2.84a2.51,2.51,0,0,0-.61,3.12c.07.11.13.21.2.3A1.51,1.51,0,0,1,59.25,57.26Z"/><path class="cls-5" d="M39.23,59.25S46,57.54,41.75,53.1c.6-1.5-2.21-3-3.63-2.37,2.5-1.78,2.05-6.51-2.52-6.43,0,0,2.32-6.67-6.77-5.84,1.29-3.55-4.32-5.1-6.7-2.14-1.59-2.66-5.72-1-5.95,1.25-1.66-3.59-10.1-2.15-8.63,4-2.76-1-3.45,1.05-3.2,2.23-2.64-1.39-6.53,2.89-2.53,6-3,1.15-1.88,5.18.35,5.27-2.28,2.43.4,2.62,1.15,2.83-1.64,2.9.05,5.16,2.44,3.92C5,64.77,9.42,63,9.42,63c-.67,3.76,5.66,6.59,7.56,3.4.58,3,3.53,1.32,3.53,1.32.22,2.23,6.39,1.9,6.41-1,2.33,2.74,7.31-.83,6.55-2.62A4.51,4.51,0,0,0,39.23,59.25Z"/><path class="cls-3" d="M41.75,53.1c.6-1.5-2.21-3-3.63-2.37,2.5-1.78,2.05-6.51-2.52-6.43,0,0,2.32-6.67-6.77-5.84,1.29-3.55-4.32-5.1-6.7-2.14-1.59-2.66-5.72-1-5.95,1.25-1.66-3.59-10.1-2.15-8.63,4-2.76-1-3.45,1.05-3.2,2.23-2.64-1.39-6.53,2.89-2.53,6-3,1.15-1.88,5.18.35,5.27-2.28,2.43.4,2.62,1.15,2.83-1.64,2.9.05,5.16,2.44,3.92C5,64.77,9.42,63,9.42,63c-.67,3.76,5.66,6.59,7.56,3.4.58,3,3.53,1.32,3.53,1.32.22,2.23,6.39,1.9,6.41-1,2.33,2.74,7.31-.83,6.55-2.62a4.51,4.51,0,0,0,5.76-4.81S46,57.54,41.75,53.1Zm-40.3.25a1,1,0,0,1,.3-.61.28.28,0,0,1,.07-.09,1.2,1.2,0,0,1,1.1-.32,1,1,0,0,1,.73.62c.25.7-.57,1.4-1.33,1.4A.87.87,0,0,1,1.45,53.35Zm5.23,6.2a2.26,2.26,0,0,1-1.56,1.39c-.82.18-1.8-.44-1.47-1.25a1.92,1.92,0,0,1,1.53-1.12.24.24,0,0,1,.16-.07C6.1,58.45,7,58.73,6.68,59.55Zm2.54.34c-.24.21-.59.29-.83.49s-.35,0-.27-.19a.26.26,0,0,0,0-.07s0-.09,0-.13A.56.56,0,0,1,8,59.66c.07-.4.52-.51.91-.54.19,0,.21.14.14.26a.49.49,0,0,1,.25.12A.28.28,0,0,1,9.22,59.89Zm1.49-7.75a1.67,1.67,0,0,1-.82,1.38A1.77,1.77,0,0,1,8,53.61C7.73,55.1,6,56.83,4.22,56.35,2.28,55.81,3.46,54.12,5,54a.82.82,0,0,1,.14-.56.93.93,0,0,1-.66-1.18c-.69.06-1.43-.14-1.58-.8-.18-.82.64-1.24,1.45-1.39A1.44,1.44,0,0,1,4,48.67,1.85,1.85,0,0,1,2.47,45.9c.62-1,1.79-.83,2.77-.36A1.86,1.86,0,0,1,6,43.83a1.42,1.42,0,0,1,.53-1.28A2.43,2.43,0,0,1,8.31,42a1.58,1.58,0,0,1,0-.69c.12-.78.44-1.44,1.22-1.46a1.21,1.21,0,0,1,.65-1.47c-.4-1.45,2.83-2.58,3.06-.85a1.85,1.85,0,0,1,1.61,0c1.15.57,1.12,2,.63,3.09a1.59,1.59,0,0,1,1.53,0,2.05,2.05,0,0,1,.61-2.17,1.62,1.62,0,0,1,2.21.25A2.45,2.45,0,0,1,20,40.44a2.79,2.79,0,0,1,2.5.48,1.19,1.19,0,0,1-.09,1.8c1.07.15,1.84,1,.73,2A5.47,5.47,0,0,1,20,45.82a1,1,0,0,1,0,.35,2.72,2.72,0,0,1-1.91,1.72l-.16,0a2.14,2.14,0,0,1-.35,1.29,2.26,2.26,0,0,1-2.13,1.09A1.55,1.55,0,0,1,14,52.13a3.57,3.57,0,0,1-1.54-.44,1.28,1.28,0,0,1-1.36.58A1.35,1.35,0,0,1,10.71,52.14Zm16.42,8.63a5.68,5.68,0,0,1-2.42.81,4,4,0,0,1-1,1.48c-1.07,1.07-3.21,1.82-3.78.39a1.78,1.78,0,0,1-2.51,1,2.63,2.63,0,0,1-1.21-1.19,3.94,3.94,0,0,1-3.32,1.27c-2.52-.4-1.9-3.29,0-3.74-.8-.89.22-2.94,1.93-3.16.7-1.25,2.76-2.39,3.44-.67A3.38,3.38,0,0,1,21,54.37c1.42-.24,2.54.28,2.83,1.44a2.15,2.15,0,0,1,3.19,0c1,1,.58,2-.3,2.72a.85.85,0,0,1,1,.61A1.39,1.39,0,0,1,27.13,60.77Z"/><path class="cls-3" d="M19.07,36a2.19,2.19,0,0,0,2.87,1c.29-.11.27.24.08.34-1.39.72.77,1.67,1.48,1.87a4.3,4.3,0,0,0,3.08,0c.28-.12.28.23.08.33C24.31,40.43,25,43,26.77,44c.17.11-.05.31-.16.34-.94.26-2.17.73-2.38,1.7a1.71,1.71,0,0,0,.64,1.65c1.65,1.29,2.89-.42,3.29-1.79.05-.18.38-.26.4,0,.12,1.75,2.59,1.09,3.7.59a7.23,7.23,0,0,0,3.59-3.92,4.06,4.06,0,0,0-.92-.93c-.19-.12.11-.43.31-.31a3.63,3.63,0,0,1,.57.49c-.27-1.8-1.69-3.87-7-3.38,1.29-3.55-4.32-5.1-6.7-2.14a2.9,2.9,0,0,0-3.42-1.24A3.13,3.13,0,0,0,19.07,36Z"/><path class="cls-6" d="M41.75,53.1c.6-1.5-2.21-3-3.63-2.37a3.5,3.5,0,0,0-.87-6.21c.55,2,.17,4-2.27,3.85.39,1.08.14,2.81-1.37,2.93S31.28,50,31,48.69a2.27,2.27,0,0,1-3.71.42,2.94,2.94,0,0,1-2.67,1.66,3,3,0,0,1,.1,2.1,7.41,7.41,0,0,1,4,.41c1.11.54.77,1.33.1,2,1,0,2.25.26,2.62,1.13a1.46,1.46,0,0,1-.56,1.76c1,0,1.87.52,1.69,1.58a1.23,1.23,0,0,1-1.47,1c1.07,1.85-1.17,4.15-3,2.55a4.09,4.09,0,0,1-2.29,2.63c-1.17.49-2,.09-2.31-.83a3.11,3.11,0,0,1-2.63,1.62c-1,0-1.3-.6-1.07-1.28a3.45,3.45,0,0,1-3-.12c-.43,1-1.93,2.1-2.5.85a4.4,4.4,0,0,1-2,1.22c1.71.72,3.7.6,4.62-1,.58,3,3.53,1.32,3.53,1.32.22,2.23,6.39,1.9,6.41-1,2.33,2.74,7.31-.83,6.55-2.62a4.51,4.51,0,0,0,5.76-4.81S46,57.54,41.75,53.1Z"/><path class="cls-6" d="M41.75,53.1c.6-1.5-2.21-3-3.63-2.37a3.5,3.5,0,0,0-.87-6.21c.55,2,.17,4-2.27,3.85.39,1.08.14,2.81-1.37,2.93S31.28,50,31,48.69a2.18,2.18,0,0,1-.65.76,3.55,3.55,0,0,1,.31,4.09c1.67-.74,5-1.19,4.31.63,1.66-.87,3.92-.2,3.72,1.84-.12,1.39-1.75,1.69-3.16,1.51A2.77,2.77,0,0,1,36.28,61a1.73,1.73,0,0,1-2.77.68,2.87,2.87,0,0,1-1.33,2.47c-.54.31-.92.26-1.13,0a4,4,0,0,1-3.55,3.1c2.48,1.68,6.68-1.48,6-3.14a4.51,4.51,0,0,0,5.76-4.81S46,57.54,41.75,53.1Z"/><path class="cls-7" d="M70.64,58.22a11.28,11.28,0,0,1-4.65,6c-3.86,2.67-6.57,5.24-7,4.64s-.18-3.85-.46-6.65c-.39-3.84.35-7.12,2.15-11.15S62.84,45,65.8,41.73c-.83-1-.62-1.57-.62-1.57S63,43.32,62.35,43.28s.6-3.66.6-3.66l-1.74-.76a53.82,53.82,0,0,1-1.4,8.92c-1,3.45-4.86,11.68-5.88,11.77s-.2-7.32,0-10.37a12.29,12.29,0,0,1,1.51-5.83c.6-.9,1.81-3.31,1.81-3.31a4.24,4.24,0,0,1-2.44-.23c-2.1,3.93-2.75,9-2.87,12.2-.2,5.25-.45,6.52-1.22,6.32s-1.5-2.48-1.85-3.74S47.1,51,46.72,49.54s-.22-2.31,1.59-5.35,1.68-4,1.68-4a4.62,4.62,0,0,1-2.41.42s-.73,3.22-1.61,4.18-.51,4.21-1.6,3a30.75,30.75,0,0,1-3.85-5.16,12.65,12.65,0,0,0-1.33-2.24l-2-.67s.24.47.05.64c1.7,2.32,3.62,5.36,6.15,8.87a26,26,0,0,1,4.4,11c.56,3.51,1.1,5.62.08,5.44A23.86,23.86,0,0,1,41,61.52c-3-2.91-4-4.42-4.69-5.94a44.36,44.36,0,0,1-2.75-8.29c-1.2-.44-1.27-.58-1.27-.58s.65,3.18.26,3.23-4.94-3.84-4.94-3.84l-1.09.29S31,49.73,33,52.79a16.34,16.34,0,0,1,2.16,4,33.69,33.69,0,0,1-3.76-1.38c-2.54-1.06-3.58-1.43-5.35-3s-3.19-2.62-3.19-2.62l-.62.06a13.08,13.08,0,0,1,.47,2A24.49,24.49,0,0,0,27,54.72a33.5,33.5,0,0,1,6.55,3.71C38,61.62,41.3,64.27,43.86,66a12.69,12.69,0,0,1,4.68,6.2c.7,1.89.3,5,.59,6.81s-.34,2.22-1.37,1.3a46.06,46.06,0,0,0-4.44-3.74C41.78,75.46,37,70.84,37,70.84s-.47.76-.84.84c2.63,2.34,5.59,5.48,5.1,5.49s-9-.36-9-.36.67.5-.17,1.4c4,.16,4.4.45,6.67.44s8,1.35,9.33,4.84S50.57,96,49.56,102.1c0,0-.21,1.18,5.08,1s7.91-.48,7.39-1.85a35.56,35.56,0,0,1-1.84-6c-.33-2-1.5-8.77-1.14-14s3-9.88,7.16-11.34,7-1.34,12.32-4.31a2.4,2.4,0,0,1-.69-.92C74.66,66,69.45,68.06,66.38,68c1-1.71,2-3.56,3.91-4.32s5.31-1.92,5.31-1.92-.87-.36-1.2-.56c-1.29.45-3.46.94-3.77.6s1.67-3.67,1.67-3.67Z"/><g class="cls-8"><path class="cls-7" d="M77.84,64.64C74.66,66,69.45,68.06,66.38,68c1-1.71,2-3.56,3.91-4.32s5.31-1.92,5.31-1.92-.87-.36-1.2-.56c-1.29.45-3.46.94-3.77.6s1.67-3.67,1.67-3.67l-1.66.09a11.28,11.28,0,0,1-4.65,6c-3.86,2.67-6.57,5.24-7,4.64s-.18-3.85-.46-6.65c-.39-3.84.35-7.12,2.15-11.15S62.84,45,65.8,41.73c-.83-1-.62-1.57-.62-1.57S63,43.32,62.35,43.28s.6-3.66.6-3.66l-1.74-.76a53.82,53.82,0,0,1-1.4,8.92c-1,3.45-4.86,11.68-5.88,11.77s-.2-7.32,0-10.37a12.29,12.29,0,0,1,1.51-5.83c.6-.9,1.81-3.31,1.81-3.31a4.24,4.24,0,0,1-2.44-.23c-2.1,3.93-2.75,9-2.87,12.2-.2,5.25-.45,6.52-1.22,6.32s-1.5-2.48-1.85-3.74S47.1,51,46.72,49.54s-.22-2.31,1.59-5.35,1.68-4,1.68-4a4.62,4.62,0,0,1-2.41.42s-.73,3.22-1.61,4.18-.51,4.21-1.6,3a30.75,30.75,0,0,1-3.85-5.16,12.65,12.65,0,0,0-1.33-2.24l-2-.67s.24.47.05.64c1.7,2.32,3.62,5.36,6.15,8.87a26,26,0,0,1,4.4,11c.56,3.51,1.1,5.62.08,5.44A23.86,23.86,0,0,1,41,61.52c-3-2.91-4-4.42-4.69-5.94a44.36,44.36,0,0,1-2.75-8.29c-1.2-.44-1.27-.58-1.27-.58s.65,3.18.26,3.23-4.94-3.84-4.94-3.84l-1.09.29S31,49.73,33,52.79a16.34,16.34,0,0,1,2.16,4,33.69,33.69,0,0,1-3.76-1.38c-2.54-1.06-3.58-1.43-5.35-3s-3.19-2.62-3.19-2.62l-.62.06a13.08,13.08,0,0,1,.47,2A24.49,24.49,0,0,0,27,54.72a33.5,33.5,0,0,1,6.55,3.71C38,61.62,41.3,64.27,43.86,66a12.69,12.69,0,0,1,4.68,6.2c.7,1.89.3,5,.59,6.81s-.34,2.22-1.37,1.3a46.06,46.06,0,0,0-4.44-3.74C41.78,75.46,37,70.84,37,70.84s-.47.76-.84.84c2.63,2.34,5.59,5.48,5.1,5.49s-9-.36-9-.36.67.5-.17,1.4c4,.16,4.4.45,6.67.44a12.27,12.27,0,0,1,2.65.37.23.23,0,0,1,.2-.24c3.06-.27,4.88,1.93,6.26,4a.17.17,0,0,1,0,.18,3.68,3.68,0,0,1,.23.49C49.42,87,50.57,96,49.56,102.1c0,0-.21,1.18,5.08,1s7.91-.48,7.39-1.85a35.56,35.56,0,0,1-1.84-6c-.33-2-1.5-8.77-1.14-14s3-9.88,7.16-11.34,7-1.34,12.32-4.31A2.4,2.4,0,0,1,77.84,64.64Zm-28.23-3.9c0-.15.26-.32.38-.16a8.39,8.39,0,0,1,1.42,3.89,8.69,8.69,0,0,1,1.08-3.88c.08-.14.37-.19.37,0,0,1-.27,2-.33,3a9.78,9.78,0,0,0,.47,3,21.85,21.85,0,0,1,.59,5.27,36.38,36.38,0,0,1-1.49,10.4c-.05.13-.35.28-.4.07-.63-2.85-.19-5.73-.3-8.6a73.76,73.76,0,0,0-.92-9.24,7.21,7.21,0,0,0-.28-1A8,8,0,0,1,49.61,60.74ZM45,65.93A35.75,35.75,0,0,1,38.23,61a12.41,12.41,0,0,1-2-2.87,26,26,0,0,1-2.59-5.26c-.07-.17.27-.39.38-.21,1.49,2.64,2.62,5.46,4.81,7.72a51.32,51.32,0,0,0,6.46,5.24C45.51,65.76,45.22,66.05,45,65.93Zm4.42,7.32a16.85,16.85,0,0,0-2.73-5.62c-.36-.46-.73-.91-1.08-1.38-.12-.15.17-.39.33-.27,1.94,1.3,4.52,3.14,4.86,5.45.23,1.48-.18,3-.16,4.44s.07,3.11-.06,4.66c0,.16-.35.35-.41.12C49.66,78.2,49.93,75.7,49.44,73.25Zm2.31,25.54c0,.21-.4.34-.4.08,0-2.43-.7-4.81-.77-7.23,0-1.62-.09-3.23-.13-4.84a.2.2,0,0,1-.09-.14,28.87,28.87,0,0,1,0-4.92c0-.15.35-.35.4-.12.53,2.83,1.62,5.63,1.76,8.49S51.9,95.89,51.75,98.79Zm2.56-13.54c-.2,2.06-.41,4.11-.76,6.15,0,.15-.35.36-.4.12a17.92,17.92,0,0,1,.13-7.11,18.64,18.64,0,0,1,1.1-5.2c0-.15.44-.27.39,0C54.4,81.18,54.51,83.24,54.31,85.25Zm.81-20.58a34,34,0,0,1,1.28-5.59c.06-.17.41-.26.4,0,0,2.13.43,4.22.25,6.36a29.84,29.84,0,0,1-1.13,5.84c0,.14-.35.29-.39.08a21.49,21.49,0,0,1-.2-6.55C55.22,64.83,55.1,64.81,55.12,64.67Zm10.31,1.26c-3.24,3.47-7.15,6.45-9.71,10.41-.1.16-.42.16-.36-.08.74-2.85,2.79-4.92,5.07-6.84a.28.28,0,0,1,.08-.12,36.23,36.23,0,0,1,4.7-3.62C65.43,65.55,65.59,65.76,65.43,65.93Z"/><path class="cls-7" d="M41.88,79.14a13.43,13.43,0,0,1,3.79,1.62A5,5,0,0,0,41.88,79.14Z"/></g><g class="cls-8"><path class="cls-7" d="M24.15,51.48a17.34,17.34,0,0,0,3.67,3,51.22,51.22,0,0,0,8,3.62l-1.06-1.37a35.74,35.74,0,0,1-3.38-1.26c-2.54-1.06-3.58-1.43-5.35-3s-3.19-2.62-3.19-2.62l-.41,0A10,10,0,0,1,24.15,51.48Z"/><path class="cls-7" d="M32.59,49.94c-.38.05-4.94-3.84-4.94-3.84l-.54.14c1.92,1.85,4.32,3.23,6.12,5.18s2.53,4.29,3.86,6.35a19.86,19.86,0,0,0,6.1,5.82c2.28,1.51,4.62,2.94,6.73,4.63-.62-1.69-.65-3.51-1.34-5.2l-.48-1.15c.42,2.53.65,4-.19,3.84A23.86,23.86,0,0,1,41,61.52c-3-2.91-4-4.42-4.69-5.94a44.36,44.36,0,0,1-2.75-8.29c-1.2-.44-1.27-.58-1.27-.58S33,49.89,32.59,49.94Z"/><path class="cls-7" d="M42.55,77.88a3.65,3.65,0,0,1,2.27,1A22.06,22.06,0,0,1,50,84a6,6,0,0,0-.23-2.55,22.49,22.49,0,0,1-.45-2.56c-.07-.62-.16-1.25-.26-1.86a12.93,12.93,0,0,0,.12,2c.29,1.83-.34,2.22-1.37,1.3a46.06,46.06,0,0,0-4.44-3.74C41.78,75.46,37,70.84,37,70.84s-.47.76-.84.84c2.63,2.34,5.59,5.48,5.1,5.49s-9-.36-9-.36.67.5-.17,1.4c4,.16,4.4.45,6.67.44a10.29,10.29,0,0,1,1.66.16A8.85,8.85,0,0,1,42.55,77.88Z"/><path class="cls-7" d="M70.77,58.21h-.13a7.24,7.24,0,0,1-.54,1.38C70.34,59.14,70.57,58.68,70.77,58.21Z"/><path class="cls-7" d="M52.51,53c0,1.45,0,2.91.08,4.37a9,9,0,0,0,.88,4A6.87,6.87,0,0,0,54.57,59c-.26.34-.49.54-.64.56-1,.09-.2-7.32,0-10.37a12.29,12.29,0,0,1,1.51-5.83c.6-.9,1.81-3.31,1.81-3.31a4.24,4.24,0,0,1-2.44-.23,23.73,23.73,0,0,0-2.18,6.38C52.7,48.47,52.54,50.75,52.51,53Z"/><path class="cls-7" d="M47.85,43.34c-1,1.76-2.42,3.7-2,5.77S47.4,53,48.26,55,50,59,50.9,61a10.18,10.18,0,0,0,.24-2.8.44.44,0,0,1-.44.11c-.76-.19-1.5-2.48-1.85-3.74S47.1,51,46.72,49.54s-.22-2.31,1.59-5.35,1.68-4,1.68-4a4.72,4.72,0,0,1-1,.33A10.07,10.07,0,0,1,47.85,43.34Z"/><path class="cls-7" d="M60.79,50.94a11.56,11.56,0,0,0-.9,1.09,11.13,11.13,0,0,0-2.15,6.18c-.07,2.21.31,4.41.29,6.63a17.77,17.77,0,0,1-.16,3.34c-.18.95-.46,1.88-.64,2.83a18.52,18.52,0,0,0,3.49-2.84c-.92.67-1.52,1-1.69.74-.38-.59-.18-3.85-.46-6.65-.39-3.84.35-7.12,2.15-11.15A.87.87,0,0,1,60.79,50.94Z"/><path class="cls-7" d="M77.84,64.64C74.66,66,69.45,68.06,66.38,68c1-1.71,2-3.56,3.91-4.32s5.31-1.92,5.31-1.92-.87-.36-1.2-.56c-1.29.45-3.46.94-3.77.6s1.67-3.67,1.67-3.67l-1.11.06c-.68,1.59-1.6,3.1-2.29,4.67-.86,2-2.68,3.41-4.25,5s-3,2.91-4.48,4.35a14.38,14.38,0,0,0-3.69,4.64c-.91,2.14-.82,4.54-1,6.8a35.52,35.52,0,0,0,0,7.85A65.52,65.52,0,0,1,56.34,98c0,1.26.3,2.89-.52,4-.06.08-.21.19-.32.09-2.23-1.94-1.22-5-2.21-7.43-.2,2.09-.17,4.44-1.6,6.14-.07.08-.26.13-.32,0-1.23-2.25-.48-5.1-.88-7.5a29.15,29.15,0,0,0-1.28-5.25,47.21,47.21,0,0,1,.35,14s-.21,1.18,5.08,1,7.91-.48,7.39-1.85a35.56,35.56,0,0,1-1.84-6c-.33-2-1.5-8.77-1.14-14s3-9.88,7.16-11.34,7-1.34,12.32-4.31A2.4,2.4,0,0,1,77.84,64.64Z"/></g><path class="cls-9" d="M88,31.84c3.3-3.34,1.17-10.25-5.62-10.75.56-1.08-1-1.41-1-1.41s1.31-5.25-4.68-6.12a5.61,5.61,0,0,0-.66-1.71s.18-5-3.94-6.91a6.16,6.16,0,0,0-7,1.11C64,3.65,61.44,4.87,61.44,4.87c-.39-2.47-3.29-3.58-4.71-1.26,0,0-1.49-3.56-4.72-1.26a4.14,4.14,0,0,0-5.74.15c.3-3.7-8.39-3.63-8,2.51A2.91,2.91,0,0,0,34.19,6.8c-1.35-2.1-2.82,1.4-2.82,1.4-3.41-3-9.07,3.19-3.94,7.07A1.72,1.72,0,0,0,26.05,18c-2.36-.7-2.17,1.35-2.17,1.35-3.38-.92-6.76,3.16-1.44,7.32-2.74.65-2.31,3.41-1.13,3.76-2.62.06-1,3.17.5,3.5-4.57,2.11-.18,6.78,4,6.32-.49,6.95,5.29,7.25,5.29,7.25-2.15,5,5.65,5.89,9,3.28,1.09,2.87,4.75-.07,4.75-.07,0,3.53,8,3.36,11.19,1,1.18,4.69,8.88,2.63,9.4-.5,0,0,5.09,3.44,9.45.9,3.89-2.36,3-4.36,2.58-5.65,2,.15,4.31-3.12,4-4.71C83.81,45.11,95.46,37.9,88,31.84Z"/><path class="cls-10" d="M88,31.84c3.3-3.34,1.17-10.25-5.62-10.75.56-1.08-1-1.41-1-1.41s1.31-5.25-4.68-6.12a5.61,5.61,0,0,0-.66-1.71s.18-5-3.94-6.91a6.16,6.16,0,0,0-7,1.11C64,3.65,61.44,4.87,61.44,4.87c-.39-2.47-3.29-3.58-4.71-1.26,0,0-1.49-3.56-4.72-1.26a4.14,4.14,0,0,0-5.74.15c.3-3.7-8.39-3.63-8,2.51A2.91,2.91,0,0,0,34.19,6.8c-1.35-2.1-2.82,1.4-2.82,1.4-3.41-3-9.07,3.19-3.94,7.07A1.72,1.72,0,0,0,26.05,18c-2.36-.7-2.17,1.35-2.17,1.35-3.38-.92-6.76,3.16-1.44,7.32-2.74.65-2.31,3.41-1.13,3.76-2.62.06-1,3.17.5,3.5-4.57,2.11-.18,6.78,4,6.32-.49,6.95,5.29,7.25,5.29,7.25-2.15,5,5.65,5.89,9,3.28,1.09,2.87,4.75-.07,4.75-.07,0,3.53,8,3.36,11.19,1,1.18,4.69,8.88,2.63,9.4-.5,0,0,5.09,3.44,9.45.9,3.89-2.36,3-4.36,2.58-5.65,2,.15,4.31-3.12,4-4.71C83.81,45.11,95.46,37.9,88,31.84ZM40.21,29.36a1.53,1.53,0,0,1-1.43,1.78,6.31,6.31,0,0,1,.37,4.67c-.63,1.71-3.27,2.28-3.82.62A2.24,2.24,0,0,1,31.24,36c-.78.68-2.12,1.43-3,.57l-.07-.09a4.61,4.61,0,0,1-1.93,1.12,1.68,1.68,0,0,1-2.12-1.08,1.84,1.84,0,0,1,1.71-2.15,2,2,0,0,1,.26-1.51c-1.45.34-3.07.07-3.29-1.52a1.54,1.54,0,0,1,1.47-1.79c-.63-1.14.73-2.05,2-2.36a1.77,1.77,0,0,1-.65-1.79c-1.9,0-4.23-1.67-3.27-3.48,1.15-2.17,3.07-.82,4.54.26a1.22,1.22,0,0,1,1-1.24,2.38,2.38,0,0,1-.52-3.14,1.72,1.72,0,0,1,2.56-.38,1,1,0,0,1,.79-.82c-1.2-.79-.61-1.89.46-2.68-1.16.18-2.63.37-3.37-.41s-.28-1.09.44-1.19a.7.7,0,0,1-.12-.55c.15-.44.11-.35-.28-.72a1.54,1.54,0,0,1-.3-1.71c.35-.94,1.53-1.39,2.08-.48h.1c1.08,0,1.48,1.29,1.52,2.13a1.85,1.85,0,0,1,2.83.7,2.63,2.63,0,0,1,2.48-1.35c-.58-1.11-.93-2.66.63-3.19A1.82,1.82,0,0,1,39.41,8a1.31,1.31,0,0,1,2.31.45,3.57,3.57,0,0,1,2.34-1.19,3.74,3.74,0,0,1,.85-1.13,2,2,0,0,1,3.21.38c.49-1.31,2.26-2.69,3.31-1.68a1.59,1.59,0,0,1,1.36-1.39,1.8,1.8,0,0,1,2.08,1.68,4.08,4.08,0,0,1-.6,2.4c1.6-.21,3.37.45,3.28,2a2.74,2.74,0,0,1,2-.49c-.07-1.11.44-2.56,2-2.19s1.67,1.72,1.22,2.85a1.51,1.51,0,0,1,2.27,1c.65-.82,1.69-1.77,2.8-1.49a2,2,0,0,1,1.61,2.24c-.3,1.69-2.55,3.18-4.47,2.92,1.13,1.71-.66,3.66-2.89,3.49a2.14,2.14,0,0,1-1.62,2.33A1.61,1.61,0,0,1,59,19.87c-.61,1.7-3.67,2.26-4.66.5A2.2,2.2,0,0,1,52,19.59a2.84,2.84,0,0,1-.45-1.12,2.87,2.87,0,0,1-1.91.18c.46.64.78,1.47,0,2a2.75,2.75,0,0,1-1.92.28,4.41,4.41,0,0,1,1.58,4.28c-.38,1.29-2.11,2.86-3.2,1.53-.39,1.19-1.51,2.94-2.94,2l-.07-.07A2.36,2.36,0,0,1,40.21,29.36ZM75.47,40.57c-1.38.61-4.54,1-5.39-.4a1.56,1.56,0,0,1-.51.27l-.38.1a.74.74,0,0,1,.1.22A3.37,3.37,0,0,1,68,44.31c-1.25,1.06-3.66,1.87-4.36.49A3,3,0,0,1,59.82,47a3.81,3.81,0,0,1-2.56-1.88c-.85.45-1.83.56-2.32-.34-1.35,1.07-2.74.17-3.14-1.23a3.42,3.42,0,0,1-2.51,1.87,2.46,2.46,0,0,1-2.11-1.14,2.83,2.83,0,0,1-.33-3,2.3,2.3,0,0,1-1.63-.46,1,1,0,0,1-.27-.55c-.09-.38,0-.22-.44-.25A2.16,2.16,0,0,1,43,39.49a1.77,1.77,0,0,1,.57-2.76,4,4,0,0,1,2.87-.1c-1.51-1.89,2-5.24,4.69-3.1.31-.53.89-1,1.37-.75.36-1.54,2.8-3.28,3.6-1.7a3.22,3.22,0,0,1,.37-.2,2.64,2.64,0,0,1,3,1.19A3.28,3.28,0,0,1,63,29.81a3,3,0,0,1,4.92-1.49c1,1.07.48,2.72-.46,3.8a2.55,2.55,0,0,1,3.19,1.67,2.85,2.85,0,0,1,2.16-1.72,3.8,3.8,0,0,1,2.92.87,2.31,2.31,0,0,1,.94,2.44,2.71,2.71,0,0,1-1.37,1.38A1.81,1.81,0,0,1,77.2,38C77.46,39.1,76.47,40.13,75.47,40.57Z"/><path class="cls-11" d="M88,31.84c3.3-3.34,1.17-10.25-5.62-10.75.56-1.08-1-1.41-1-1.41s1.31-5.25-4.68-6.12a5.61,5.61,0,0,0-.66-1.71s.18-5-3.94-6.91A6.11,6.11,0,0,0,68,4.48l.12.17a1,1,0,0,1,0,.92,3.12,3.12,0,0,1,3.26.8,2.77,2.77,0,0,1,.11,3.68c2.34-.56,2,2.35.91,3.68a10.64,10.64,0,0,1-3.06,2.34,1.93,1.93,0,0,1,1.26.56,1.17,1.17,0,0,1,.2,1.32c1-.36,2.08-.35,2,.43a2.78,2.78,0,0,1,2.36-.67,1.62,1.62,0,0,1,.91,2.44,10.05,10.05,0,0,1-2.36,2.63A1.3,1.3,0,0,1,74.68,24a3.11,3.11,0,0,1,2.83-1c1.37.25,1.62,1.75,1.42,2.77a6.58,6.58,0,0,1-1.21,2.47A2.12,2.12,0,0,1,79.43,28a1.39,1.39,0,0,1,.95,1.46c1.35-1.06,3.78-2.2,4.15-.17a3.58,3.58,0,0,1-.82,2.61,3.54,3.54,0,0,1,1.9.88,2.12,2.12,0,0,1,0,2.78,2.67,2.67,0,0,1-3,.73c.8,1.6-.67,3.62-2.41,2.73a5.33,5.33,0,0,1-2.78,3.32,7.86,7.86,0,0,1-3.52.82,2.16,2.16,0,0,1-.47,2.37,2.13,2.13,0,0,1-3.06-.28c.36,1.61.53,3.37-1.22,4.34s-2.91-.05-3.68-1.31a4.82,4.82,0,0,1-1.51,2.94,3.12,3.12,0,0,1-3.3.34,2.05,2.05,0,0,1-1-2,2.16,2.16,0,0,1-2.13.74,2.07,2.07,0,0,1-1.55-1.44A4,4,0,0,1,54,50.19a2.21,2.21,0,0,1-3-1.9c-1,1-2.61,1.78-3.74.65a1.58,1.58,0,0,1-.47-.82,3.16,3.16,0,0,1-1,0,2.3,2.3,0,0,1-2.19-2.57,1.32,1.32,0,0,1-1.78-.3,5.56,5.56,0,0,1-3.35,4c-1,.35-2.64,0-2.94-1.1A2.62,2.62,0,0,1,36,45.91a1.82,1.82,0,0,1-1.79,0,1.64,1.64,0,0,1-.57-.62,3,3,0,0,1-1.3.46c-1.55.16-1.45-1.35-1.07-2.38A2.47,2.47,0,0,1,29,44a2.08,2.08,0,0,1-1.11-1.81,3.36,3.36,0,0,1,.36-2A1.88,1.88,0,0,1,27.32,38a2.68,2.68,0,0,1-2.89.54,2,2,0,0,1-.78-.59,3,3,0,0,1-2,0A2.82,2.82,0,0,1,20,35.61c-.86,2.24,2.53,5,5.84,4.66-.49,6.95,5.29,7.25,5.29,7.25-2.15,5,5.65,5.89,9,3.28,1.09,2.87,4.75-.07,4.75-.07,0,3.53,8,3.36,11.19,1,1.18,4.69,8.88,2.63,9.4-.5,0,0,5.09,3.44,9.45.9,3.89-2.36,3-4.36,2.58-5.65,2,.15,4.31-3.12,4-4.71C83.81,45.11,95.46,37.9,88,31.84Z"/><path class="cls-12" d="M42.28,75.16s2.71-1.25,2-3.65-4.18-1.9-4.85-1.58c1-2.18-1-3.12-2.08-2.69,0-.7-.42-.74-.71-.64.47-1.4-1.71-2.91-3.18-1.32a2.75,2.75,0,0,0-2.93.22c0-.77-1.2-.73-1.82-.32.16-2-5.29-1.71-4.81,2-1.6-.7-3,.46-3,1.16a2.44,2.44,0,0,0-2.74,2.39c-.18,2.67,3.07,3,3.07,3s-2.43,1.47.08,3.07c-.94.7-.09,2.81,2.74,2.37-.21,1,1.56,1.28,2.19.14.37,1.18,2.82,1.78,4.21.81.39.91,1.84.64,2.53-.43,1.13,1.28,6,2.31,5.81-1.61A2.94,2.94,0,0,0,42.28,75.16Z"/><path class="cls-13" d="M44.24,71.51c-.75-2.41-4.18-1.9-4.85-1.58,1-2.18-1-3.12-2.08-2.69,0-.7-.42-.74-.71-.64.47-1.4-1.71-2.91-3.18-1.32a2.75,2.75,0,0,0-2.93.22c0-.77-1.2-.73-1.82-.32.16-2-5.29-1.71-4.81,2-1.6-.7-3,.46-3,1.16a2.44,2.44,0,0,0-2.74,2.39c-.18,2.67,3.07,3,3.07,3s-2.43,1.47.08,3.07c-.94.7-.09,2.81,2.74,2.37-.21,1,1.56,1.28,2.19.14.37,1.18,2.82,1.78,4.21.81.39.91,1.84.64,2.53-.43,1.13,1.28,6,2.31,5.81-1.61a2.94,2.94,0,0,0,3.51-2.89S45,73.91,44.24,71.51Zm-11.8-1.28c.59,1-.62,1.88-1.79,2a4.14,4.14,0,0,1-2.6,5.17c-1.15.34-2.84.38-3-1v-.06c-.93.34-1.89.37-2.35-.59a1.33,1.33,0,0,1,.72-1.85,1.55,1.55,0,0,1-.87-1.44,2.56,2.56,0,0,1-2.53-1c-1.1-2.12,1.61-2.92,3.46-2.39a.13.13,0,0,1,.06,0A2.38,2.38,0,0,1,24.46,68a1.31,1.31,0,0,1,0-.44,2.88,2.88,0,0,1,1.22-1.75,2.65,2.65,0,0,1,1.86-.59,1,1,0,0,1,.78,1,1.83,1.83,0,0,1,2.31.92c1.51-.53,4-.74,4.13,1A2.18,2.18,0,0,1,32.44,70.23Z"/><path class="cls-14" d="M44.24,71.51c-.75-2.41-4.18-1.9-4.85-1.58,1-2.18-1-3.12-2.08-2.69,0-.7-.42-.74-.71-.64.47-1.38-1.65-2.86-3.11-1.38,0,0,0,0,0,.07a1.49,1.49,0,0,1,1.6.25,2.21,2.21,0,0,1,.35,2.66,2.34,2.34,0,0,1,1.86.6,2.66,2.66,0,0,1,.58,2.25,3.41,3.41,0,0,1,2.65.42c1.51,1-.19,2.41-1.44,2.82v0a1.7,1.7,0,0,1-.33,1.51,2.17,2.17,0,0,1-1.45.87,2.88,2.88,0,0,1-.33.81c-.76,1.28-2.57,1.78-3.57.93a2.94,2.94,0,0,1-.36.42,1.77,1.77,0,0,1-1.58.47,1,1,0,0,1-.58-.45c-1.54.76-3.58.71-4.08-.46a3.59,3.59,0,0,1-2.64,0,1.83,1.83,0,0,1-.92-1,1.75,1.75,0,0,1-1.07-.36,1,1,0,0,1-.41-1.34,1.29,1.29,0,0,1-1.34-1.32c-.41.58-.58,1.45.85,2.36-.94.7-.09,2.81,2.74,2.37-.21,1,1.56,1.28,2.19.14.37,1.18,2.82,1.78,4.21.81.39.91,1.84.64,2.53-.43,1.13,1.28,6,2.31,5.81-1.61a2.94,2.94,0,0,0,3.51-2.89S45,73.91,44.24,71.51Z"/><path class="cls-15" d="M23.41,69.62a1.4,1.4,0,0,0-1.18-.31,1.53,1.53,0,0,0-.91.54h0a1.55,1.55,0,0,0-.27.24.89.89,0,0,0,0,1.08,1.2,1.2,0,0,0,1.13.49C23.15,71.59,24.2,70.44,23.41,69.62Z"/><path class="cls-15" d="M24.79,71c-.36-.27-.87.09-1,.4a.39.39,0,0,0,0,.47A.31.31,0,0,0,24,72a.33.33,0,0,0,.37,0C24.64,71.86,25.23,71.33,24.79,71Z"/><path class="cls-15" d="M24.55,72.94h0a.65.65,0,0,0-.54.27.42.42,0,0,0-.15.46c.05.14.3.19.43.16a.67.67,0,0,0,.56-.64C24.81,73,24.7,73,24.55,72.94Z"/><path class="cls-16" d="M35.68,76.12a.92.92,0,0,0-1.25-.46,1.77,1.77,0,0,0-.92.72l-.07.08a1.09,1.09,0,0,0-.2,1.09.83.83,0,0,0,.81.52,1.77,1.77,0,0,0,1.29-.64A1.37,1.37,0,0,0,35.68,76.12Z"/><path class="cls-16" d="M32.19,77.44c-.14,0-.31.26-.12.26S32.37,77.44,32.19,77.44Z"/><path class="cls-16" d="M32.56,72.3l-.1.06a.9.9,0,0,0-.62.62c-.09.29,0,.73.39.78a1.13,1.13,0,0,0,1.12-1.08C33.36,72.34,32.86,72.16,32.56,72.3Z"/><path class="cls-16" d="M29.21,77.77a1,1,0,0,0-1,1,.29.29,0,0,0,.19.25.83.83,0,0,0,.76-.12h0a1.13,1.13,0,0,0,.39-.29A.5.5,0,0,0,29.21,77.77Z"/><path class="cls-16" d="M41.27,74.66c-.15-.19-.45-.07-.62,0a.65.65,0,0,0-.26.26.86.86,0,0,0-.26.52.26.26,0,0,0,.11.23h-.07c-.22,0-.46.38-.19.38s.38-.27.27-.36a.72.72,0,0,0,.27.12.78.78,0,0,0,.61-.22A.69.69,0,0,0,41.27,74.66Z"/><path class="cls-14" d="M15.49,58.75a1.08,1.08,0,0,0-1.29-.18,1.9,1.9,0,0,0-1.15,1.29.62.62,0,0,0,.18.62.86.86,0,0,0,.7.27A2,2,0,0,0,15.27,60a1.2,1.2,0,0,0,.16-.27.67.67,0,0,0,.07-.18c0,.14.05-.13.06-.16A.77.77,0,0,0,15.49,58.75Z"/><path class="cls-14" d="M13.57,61.61c-.16-.2-.55,0-.7.08s-.41.36-.37.58a.06.06,0,0,1,0,0c0,.15.12.28.31.28h0a.77.77,0,0,0,.53-.21.73.73,0,0,0,.25-.43A.36.36,0,0,0,13.57,61.61Z"/><path class="cls-16" d="M10.52,54.75a1.55,1.55,0,0,0-1,.31A1.36,1.36,0,0,0,8.9,56a.68.68,0,0,0,0,.76c.38.46,1.15.1,1.51-.18a1.8,1.8,0,0,0,.69-1.24C11.16,55,10.86,54.79,10.52,54.75Z"/><path class="cls-16" d="M8.38,57.5a.78.78,0,0,0-.1-.15c-.16-.15-.43,0-.56.09l0,.05a.44.44,0,0,0-.18.32s0,0,0,0a.16.16,0,0,0,.06.24c.19.1.43,0,.6-.11S8.48,57.65,8.38,57.5Z"/><g class="cls-17"><path class="cls-18" d="M4.45,45.65a1.42,1.42,0,0,0-1.56.8,1.06,1.06,0,0,0,0,1,.64.64,0,0,0,.84.53,1.74,1.74,0,0,0,1.22-1A.89.89,0,0,0,4.45,45.65Z"/><path class="cls-18" d="M6.26,48.49c-.55-.47-1.3.17-1.5.64a.41.41,0,0,0,0,.49.65.65,0,0,0,.56.18.8.8,0,0,0,.41-.06C6.26,49.56,6.75,48.89,6.26,48.49Z"/><path class="cls-19" d="M3.79,51a.65.65,0,0,0-.11.22h0c0,.1,0,.22.1.24l.13,0A.56.56,0,0,0,4.5,51C4.48,50.57,3.92,50.81,3.79,51Z"/><path class="cls-20" d="M12.51,39.9c-.51-.57-1.43-.13-1.92.26a1.83,1.83,0,0,0-.49.51A1.27,1.27,0,0,0,9.84,42a.52.52,0,0,0,.08.11.9.9,0,0,0,.27.35c.65.51,1.65-.11,2.06-.61S13,40.46,12.51,39.9Z"/><path class="cls-19" d="M14.54,40.72a.32.32,0,0,0-.08-.12v0a.42.42,0,0,0-.46,0,.92.92,0,0,0-.41.31c-.19.28-.17.74.32.65a.83.83,0,0,0,.53-.33C14.52,41.08,14.64,40.86,14.54,40.72Z"/><path class="cls-19" d="M18,45.39c-.21-.43-.71-.39-1.12-.19a1.63,1.63,0,0,0-.67.78c-.22.51-.3,1.39.55,1.33h.1A1.44,1.44,0,0,0,18,46.55,1.25,1.25,0,0,0,18,45.39Z"/></g><path class="cls-21" d="M31.34,59.13a.81.81,0,0,0-.92-.44,1.55,1.55,0,0,0-1.1.83.88.88,0,0,0-.07.83l.07.07c0,.17.16.25.33.3a1.4,1.4,0,0,0,1.17-.38A1.19,1.19,0,0,0,31.34,59.13Z"/><path class="cls-21" d="M28.93,61.69a.84.84,0,0,0-.72.45c-.09.2-.06.52.25.52a.82.82,0,0,0,.73-.46C29.29,62,29.25,61.69,28.93,61.69Z"/><path class="cls-21" d="M34.9,60.75A2.12,2.12,0,0,0,33.34,62a1.14,1.14,0,0,0-.06.87.86.86,0,0,0,1,.43,1.83,1.83,0,0,0,.78-.37,2.19,2.19,0,0,0,.9-1.11C36.12,61.21,35.6,60.67,34.9,60.75Z"/><path class="cls-14" d="M20.67,55.65a1.27,1.27,0,0,0-.54.47l0,0a.37.37,0,0,0,0,.51c.17.19.51.09.69,0a.89.89,0,0,0,.46-.81C21.22,55.59,20.88,55.57,20.67,55.65Z"/><path class="cls-22" d="M25.36,22a.72.72,0,0,0-.39-.23l-.07-.09c-.51-.56-1.34-.21-1.74.25A1.53,1.53,0,0,0,23,23.49a1.31,1.31,0,0,0,1.7.68,1.53,1.53,0,0,0,1-1.12A1.3,1.3,0,0,0,25.36,22Z"/><path class="cls-22" d="M28.2,25c-.18-.2-.53-.12-.75-.05s-.86.68-.49,1L27,26a.43.43,0,0,0,.42.44c.56,0,.89-.56.92-1A.5.5,0,0,0,28.2,25Z"/><path class="cls-23" d="M27.28,28.1a.78.78,0,0,0-.73-.36,1.72,1.72,0,0,0-1.23.64,1.43,1.43,0,0,0-.33.73,1,1,0,0,0,0,.46.21.21,0,0,0,.07.11.56.56,0,0,0,.48.41,1.63,1.63,0,0,0,1.21-.53C27.14,29.22,27.57,28.57,27.28,28.1Z"/><path class="cls-24" d="M24.8,30.43a.64.64,0,0,0-.6.17c-.16.16-.3.35-.23.56,0,0,0,.05,0,.07a.24.24,0,0,0,.26.23.68.68,0,0,0,.54-.27.66.66,0,0,0,.14-.26,1.77,1.77,0,0,1,.06-.17A.27.27,0,0,0,24.8,30.43Z"/><path class="cls-24" d="M22.76,34.37a.94.94,0,0,0-1.18.19,1.72,1.72,0,0,0-.49.88c-.13.53-.08,1.31.74,1.22a1.25,1.25,0,0,0,.88-.55A1.21,1.21,0,0,0,22.76,34.37Z"/><path class="cls-24" d="M25.84,35c-.35.06-.88.62-.44.87h0v0h.05a.73.73,0,0,0,.8-.66C26.24,35.07,26.05,35,25.84,35Z"/><path class="cls-20" d="M41.92,5.3c0-.07,0-.13-.14-.11s-.51.36-.24.46S42,5.44,41.92,5.3Z"/><path class="cls-23" d="M30.09,9.68a.48.48,0,0,0-.46-.33,1.2,1.2,0,0,0-.92.51,1.23,1.23,0,0,0-.23.71.51.51,0,0,0,.41.44c.25.16.64,0,.85-.18A1.06,1.06,0,0,0,30.09,9.68Z"/><path class="cls-23" d="M29.9,12.65a.4.4,0,0,0-.25-.18c-.08-.15-.31-.14-.49,0s-.58.53-.41.76a.44.44,0,0,0,.49.21.86.86,0,0,0,.56-.34C29.88,13,30,12.78,29.9,12.65Z"/><path class="cls-23" d="M33.32,12c-.06-.22-.41-.18-.59-.13l0,0a.76.76,0,0,0-.54.75s0,0,0,.05c0,.33.35.44.65.33A.82.82,0,0,0,33.32,12Z"/><path class="cls-23" d="M38.42,11.17a1,1,0,0,0-1.24-.76,2.36,2.36,0,0,0-1.23.76A2.31,2.31,0,0,0,35,13.34c.13.57.71.75,1.3.63a2.91,2.91,0,0,0,1.88-1.53A1.83,1.83,0,0,0,38.42,11.17Z"/><path class="cls-23" d="M38.35,8c-.29-.26-.76,0-1,.17a1,1,0,0,0-.46.84c0,.29.31.4.6.36A1.11,1.11,0,0,0,38.18,9a.88.88,0,0,0,.12-.19.14.14,0,0,0,0-.07A.51.51,0,0,0,38.35,8Z"/><path class="cls-22" d="M42.23.88a2.87,2.87,0,0,0-1.83,1.3l-.18.29a1.54,1.54,0,0,0-.25.32,1.2,1.2,0,0,0,.38,1.73c.64.35,1.51-.21,1.95-.57a3,3,0,0,0,1.13-1.84A1.07,1.07,0,0,0,42.23.88Z"/><path class="cls-23" d="M44.33,7.66a3.28,3.28,0,0,0-2,2.63.66.66,0,0,0,.09.39c.14.79,1.4.53,2,.22a3,3,0,0,0,1.43-2.08A1,1,0,0,0,44.33,7.66Z"/><path class="cls-23" d="M47.82,7a.6.6,0,0,0-.58,0c-.23.09-.48.35-.38.59,0,0,0,0,0,0a.25.25,0,0,0,.24.14.79.79,0,0,0,.72-.43A.24.24,0,0,0,47.82,7Z"/><path class="cls-23" d="M52.14,6.36h0a.57.57,0,0,0,.07-.29c0-.27-.27-.34-.53-.32a1.1,1.1,0,0,0-.62.3c-.29.27-.4.76-.05.89l.05,0,0,0a.77.77,0,0,0,.42-.06A1,1,0,0,0,52,6.53l.11-.16Z"/><path class="cls-23" d="M50.29,34.13c-.64-.5-1.5-.05-2,.39a2.32,2.32,0,0,0-.7,1.06c-.31.38-.45,1,0,1.29a1.53,1.53,0,0,0,1.57-.17,3.82,3.82,0,0,0,1.22-1.28A1,1,0,0,0,50.29,34.13Z"/><path class="cls-24" d="M46.12,37.34c-.49.11-1.07.58-1.06,1.08a1.74,1.74,0,0,0-.05.22c0,.32.3.53.61.58a1.1,1.1,0,0,0,.8-.29,1.34,1.34,0,0,0,.44-.71C47,37.77,46.76,37.2,46.12,37.34Z"/><path class="cls-6" d="M71.07,21.55a2,2,0,0,0-1.63.1c.11-.63-.15-1.17-1.11-1a4.76,4.76,0,0,0-1,.31l0-.07c.14-.33-.06-.46-.31-.44-.23-.27-.73-.31-1.37-.19a2.37,2.37,0,0,0-1.81,1.61,1.93,1.93,0,0,0-1.82.52c-.65-1.2-3.66-.22-3.91,1.49a1.61,1.61,0,0,0-.84.21,1.36,1.36,0,0,0-1.8-.41c0-.74-.38-1.44-1.34-1.14a2.59,2.59,0,0,0-1.72,2.7,2.14,2.14,0,0,0-.92,1A1.94,1.94,0,0,0,50,27.88a5.62,5.62,0,0,0-2.39.62c-.58.3-1.29,1.13-.92,1.77.61,1,2.15.36,3.16-.37.15.74,1,1.19,1.94.6a6.42,6.42,0,0,0,2.1-2,1.06,1.06,0,0,0,.54.19,2.67,2.67,0,0,0,2-1.08c.18.86.69,1.7,1.64,1.71a1.68,1.68,0,0,0,1.65-1.47c1,.4,2.23-.78,2.14-2a4.2,4.2,0,0,0,2.49-.52,1.82,1.82,0,0,0,.54-.63,5.92,5.92,0,0,0,1.69.63,3.26,3.26,0,0,0,2-.07,10.32,10.32,0,0,0,1.7-1.39C70.8,23.49,72.3,22.12,71.07,21.55Z"/><path class="cls-6" d="M72.43,25.17c-.54-.27-1.25.18-1.63.49A1.75,1.75,0,0,0,70.08,27c.11.81,1.16.66,1.7.31l.08-.05a2.56,2.56,0,0,0,.77-.66C73,26.15,73.06,25.48,72.43,25.17Z"/><path class="cls-6" d="M75.09,25.6h0a.42.42,0,0,0,0-.24c0-.26-.34-.35-.58-.23a1.39,1.39,0,0,0-.41.27.66.66,0,0,0-.26.52.23.23,0,0,0,.22.29h.11A.91.91,0,0,0,74.8,26a2,2,0,0,0,.19-.22l.09-.12Z"/><g class="cls-25"><path class="cls-26" d="M43.35,64.83c-2.82-2.22-5.72-4.37-8.58-6.56A20.33,20.33,0,0,0,30.07,56a22.54,22.54,0,0,1-5.91-3.74c-.06,0-.16.05-.11.1a23.88,23.88,0,0,0,3.83,2.89c1.9,1.12,4.13,1.68,5.93,2.9C37,60.37,40,62.82,43.21,65,43.28,65,43.42,64.88,43.35,64.83Z"/><path class="cls-26" d="M38.29,60c-2.39-2.19-3-5-4.75-7.53,0-.08-.19,0-.16.09,1.3,2.52,2,6,4.69,7.64C38.18,60.23,38.39,60.06,38.29,60Z"/><path class="cls-26" d="M47.53,56.15c0-.08-.17,0-.15.1A104.74,104.74,0,0,1,50.67,73.1c0,.23.37,0,.38-.13C51.27,67.28,49.06,61.6,47.53,56.15Z"/><path class="cls-26" d="M50.2,75.19a20.8,20.8,0,0,0-1.14-5c-.55-1.45-2-2.65-3.17-3.72-.06-.05-.16,0-.12.1a13.66,13.66,0,0,1,3.1,4.54,22.53,22.53,0,0,1,.92,5.87c.22,3.45.1,6.85.89,10.27,0,.12.22,0,.2-.07C50.14,83.12,50.64,79.2,50.2,75.19Z"/><path class="cls-26" d="M52.22,56.61c0-.07-.09,0-.1,0-.17,1-.64,1.86-.72,2.81a27.4,27.4,0,0,0,0,3.51c0,.17.28,0,.28-.1.06-1,0-2.06,0-3.09S52.12,57.67,52.22,56.61Z"/><path class="cls-26" d="M55.07,60.23c-1.75,5.36-.42,10.78-.9,16.23-.45,5.14-1.92,10.37-.78,15.51,0,.11.21,0,.2-.08-.88-5.57.87-10.78,1.35-16.29.46-5.2-1-10.27.53-15.44C55.54,59.92,55.12,60.06,55.07,60.23Z"/><path class="cls-26" d="M54.94,95c-.28-1.44-.37-2.9-.54-4.35,0-.08-.13,0-.13.05a39.26,39.26,0,0,0,.24,4.47c.26,1.55.78,3,1.12,4.57,0,.11.2,0,.2-.07A37.67,37.67,0,0,0,54.94,95Z"/><path class="cls-26" d="M68.26,62.7c-3.25,3.63-7.9,5.86-11.2,9.47-.08.07,0,.12.1.06,3.5-3.42,8.11-5.73,11.21-9.48C68.44,62.66,68.31,62.63,68.26,62.7Z"/><path class="cls-26" d="M76.07,65.72c-3.4,1.15-6.86,1.93-10.31,3-.05,0-.09.12,0,.11,3.44-.7,7.29-1.26,10.38-2.87C76.24,65.85,76.24,65.66,76.07,65.72Z"/><path class="cls-26" d="M73.39,61.86c-1,.19-1.9.41-2.86.54-.06,0-.14.13,0,.13a11.88,11.88,0,0,0,2.85-.4C73.46,62.09,73.6,61.82,73.39,61.86Z"/><path class="cls-26" d="M46.94,81.16a8.38,8.38,0,0,0-4.14-2.49c-.08,0-.23.13-.13.17a10.94,10.94,0,0,1,4.1,2.47C46.85,81.39,47,81.24,46.94,81.16Z"/></g><path class="cls-14" d="M80,52.79a1.93,1.93,0,0,0-2.16.35c-.57.44-1.05,1.33-.44,1.9a1.42,1.42,0,0,0,1.56,0,2.23,2.23,0,0,0,1-.68C80.26,54,80.54,53.16,80,52.79Z"/><path class="cls-14" d="M76.06,55.55c-.33-.41-1-.12-1.27.13s-.66.72-.48,1.07c0,.3.39.37.66.35a1.51,1.51,0,0,0,.83-.45C76.08,56.35,76.36,55.91,76.06,55.55Z"/><path class="cls-14" d="M71.07,56.55l0-.06c-.18-.26-.52-.12-.72,0l-.09.08c-.24.11-.44.38-.28.61.28.38.85,0,1-.27C71.05,56.85,71.15,56.67,71.07,56.55Z"/><path class="cls-14" d="M65.72,57.7c-.13-.49-.87-.35-1.23-.19a2,2,0,0,0-1.2,1.3c-.15.84,1.1.78,1.55.34l.09,0A1.37,1.37,0,0,0,65.72,57.7Z"/><path class="cls-14" d="M92.24,55.85c-.54-.28-1.21.19-1.58.5a3,3,0,0,0-.91,1.26.37.37,0,0,0,.1.38l.16.09a.69.69,0,0,0,.53.22,2.28,2.28,0,0,0,1.6-.78C92.56,57.09,93,56.23,92.24,55.85Z"/><path class="cls-14" d="M88.46,60.16a1.79,1.79,0,0,0-.35.11c-.32.15-.66.5-.41.83s.8.07,1-.19a.44.44,0,0,0,.09-.35A.27.27,0,0,0,88.46,60.16Z"/><path class="cls-14" d="M94.7,58.39a1.86,1.86,0,0,0-1.44.19c-.63.3-1.42.8-1.36,1.52a.58.58,0,0,0,.09.27l.09.15c.28.34.86.18,1.23.06a3.27,3.27,0,0,0,1.24-.71C94.92,59.52,95.36,58.7,94.7,58.39Z"/><path class="cls-14" d="M89.11,64a.31.31,0,0,0-.21-.09.23.23,0,0,0-.23,0c-.23.13-.48.42-.19.6a.31.31,0,0,0,.32,0l.06,0C89,64.47,89.32,64.19,89.11,64Z"/><path class="cls-6" d="M42.08,40.86c.2-.66.05-1.26-1-1.43a1.92,1.92,0,0,0-1.39.37.86.86,0,0,0-1.1-.74,1.33,1.33,0,0,0-.75.34.66.66,0,0,0-.82-.45A1.29,1.29,0,0,0,36,39.7,2,2,0,0,0,34,40a.94.94,0,0,0-.26.45,1.58,1.58,0,0,0-1.39,1c-.31,1,1.06,1.09,2.21,1-.46.39-.77.85-.35,1.19.83.68,2,.33,2.93-.23a.85.85,0,0,0,.45.61,1.09,1.09,0,0,0,.6.17,4.12,4.12,0,0,0-.35.85A.91.91,0,0,0,39,46.1a3.73,3.73,0,0,0,2.29-2.54c0-.06,0-.13.07-.21,1,0,2.47-.48,2.61-1.37C44.14,40.81,43.06,40.66,42.08,40.86Z"/><path class="cls-27" d="M88.83,53.12a2.38,2.38,0,0,0-2.26.5,2,2,0,0,0-.26-.48c-.48-.59-1.66-.37-2.24,0a2.64,2.64,0,0,0,.07-.78c-.06-.7-.94-.86-1.51-.52a4,4,0,0,0-1.53,3.41,2.18,2.18,0,0,0-1.73,1.4c-.77,0-1.49.4-1.42,1.21,0,.57.87.76,1.72.76a1.65,1.65,0,0,0-.35.93.62.62,0,0,0,.51.66c-.69.71-1,1.7-.14,2.34a1,1,0,0,0,1,0,.89.89,0,0,0,.58,1.1c.51.17,1.25-.44,1.49-.76a4.93,4.93,0,0,0,.52-.91,1.71,1.71,0,0,0,1.1-.45,2.56,2.56,0,0,0,.76-1.77A1.15,1.15,0,0,0,87,59.53a1.78,1.78,0,0,0,.29-1.59c.85-.19,1.37-1.54,1.24-2.45C89.33,54.92,89.93,53.62,88.83,53.12Z"/><path class="cls-23" d="M46.36,21.15a1.31,1.31,0,0,0-.44-.77,2.42,2.42,0,0,0-.42-.29l.43-.22c1.25-.63,2.49-1.61,2.52-3s-2.26-1.2-3.64-.25a1.81,1.81,0,0,0-.56-.77c-.58-.51-1.55,0-2.15.32a2,2,0,0,0-1.37-1.86c-1.49-.64-2.61,1-2.94,2.34-.92-.82-1.89-1.6-3.14-.59A2,2,0,0,0,34,17.32a1.59,1.59,0,0,0-1.55-.13,1.71,1.71,0,0,0-.84,2.34,1.32,1.32,0,0,0-1.1.3.92.92,0,0,0-.17,1.38,2.67,2.67,0,0,0-1.52.62,1.7,1.7,0,0,0-.53,1.9,1.64,1.64,0,0,0,1.56.68c-.4.82.49,1.3,1.36,1.41-1.17.82-2.72,2.13-1.9,3.3.51.72,1.77.27,2.6-.24.18.82,1.64.53,2.4.1a5.41,5.41,0,0,0,1-.68A1.12,1.12,0,0,0,37,29c1-.4,1.42-1.63,1.82-2.43a11.47,11.47,0,0,0,.53-1.22c.47.61,1.21,1.29,2,1A1.93,1.93,0,0,0,42.45,25a1.72,1.72,0,0,0,2.12.12,1.81,1.81,0,0,0,.65-.64,4.26,4.26,0,0,0,1.11-.34c.83-.41,1.5-1.15,1.24-2A1.57,1.57,0,0,0,46.36,21.15Z"/></g></g></g></svg>